<?xml version="1.0" standalone="no"?>
<!DOCTYPE svg PUBLIC "-//W3C//DTD SVG 1.1//EN" "http://www.w3.org/Graphics/SVG/1.1/DTD/svg11.dtd" >
<!--
2013-9-30: Created.
-->
<svg>
<metadata>
Created by iconfont
</metadata>
<defs>

<font id="iconfont" horiz-adv-x="1024" >
  <font-face
    font-family="iconfont"
    font-weight="500"
    font-stretch="normal"
    units-per-em="1024"
    ascent="896"
    descent="-128"
  />
    <missing-glyph />
    
    <glyph glyph-name="shouji" unicode="&#58893;" d="M786.496 808.8 251.008 808.8c-25.088 0-45.44-20.352-45.44-45.504l0-55.424 0-21.76 0-715.136 0-50.624 0-83.648c0-25.152 20.352-45.504 45.44-45.504l78.016 0L496.64-208.8l44.288 0 167.552 0 78.016 0c25.152 0 45.504 20.352 45.504 45.504l0 107.008 0 27.264L832 686.112 832 731.296l0 32C832 788.448 811.648 808.8 786.496 808.8zM579.776 753.632c8.128 7.936 22.144 7.936 30.336 0C614.016 749.472 616.192 744.16 616.192 738.528c0-5.568-2.176-11.008-6.208-14.912C606.016 719.584 600.512 717.28 595.008 717.28c-5.696 0-11.328 2.304-15.232 6.144-3.84 4.032-6.144 9.536-6.144 15.104C573.632 744.16 575.936 749.664 579.776 753.632zM456.576 759.776l59.008 0c11.776 0 21.312-9.472 21.312-21.312 0-11.712-9.536-21.312-21.312-21.312L456.576 717.152c-11.712 0-21.248 9.6-21.248 21.312C435.328 750.304 444.864 759.776 456.576 759.776zM518.72-166.048c-27.2 0-49.216 22.08-49.216 49.344s22.016 49.344 49.216 49.344c27.264 0 49.28-22.08 49.28-49.344S545.984-166.048 518.72-166.048zM786.688-29.152 250.88-29.152 250.88 669.088l535.808 0L786.688-29.152z"  horiz-adv-x="1024" />

    
    <glyph glyph-name="checkbox" unicode="&#59012;" d="M938.666667-128 85.333333-128c-46.933333 0-85.333333 38.4-85.333333 85.333333L0 810.666667c0 46.933333 38.4 85.333333 85.333333 85.333333l853.333333 0c46.933333 0 85.333333-38.4 85.333333-85.333333l0-853.333333C1024-89.6 985.6-128 938.666667-128zM938.666667 789.333333c0 12.8-8.533333 21.333333-21.333333 21.333333L106.666667 810.666667C93.866667 810.666667 85.333333 802.133333 85.333333 789.333333l0-810.666667c0-12.8 8.533333-21.333333 21.333333-21.333333l810.666667 0c12.8 0 21.333333 8.533333 21.333333 21.333333L938.666667 789.333333z"  horiz-adv-x="1024" />

    
    <glyph glyph-name="addgrey" unicode="&#59011;" d="M574.745 446.745v376.416c0 34.901-28.092 62.8-62.745 62.8-34.895 0-62.745-28.116-62.745-62.8v-376.416h-376.416c-34.901 0-62.8-28.092-62.8-62.745 0-34.895 28.116-62.745 62.8-62.745h376.416v-376.416c0-34.901 28.092-62.8 62.745-62.8 34.895 0 62.745 28.116 62.745 62.8v376.416h376.416c34.901 0 62.8 28.092 62.8 62.745 0 34.895-28.116 62.745-62.8 62.745h-376.416z"  horiz-adv-x="1024" />

    
    <glyph glyph-name="trash" unicode="&#58899;" d="M402.272 475.424l0-329.152q0-8-5.152-13.152t-13.152-5.152l-36.576 0q-8 0-13.152 5.152t-5.152 13.152l0 329.152q0 8 5.152 13.152t13.152 5.152l36.576 0q8 0 13.152-5.152t5.152-13.152zM548.544 475.424l0-329.152q0-8-5.152-13.152t-13.152-5.152l-36.576 0q-8 0-13.152 5.152t-5.152 13.152l0 329.152q0 8 5.152 13.152t13.152 5.152l36.576 0q8 0 13.152-5.152t5.152-13.152zM694.848 475.424l0-329.152q0-8-5.152-13.152t-13.152-5.152l-36.576 0q-8 0-13.152 5.152t-5.152 13.152l0 329.152q0 8 5.152 13.152t13.152 5.152l36.576 0q8 0 13.152-5.152t5.152-13.152zM767.968 61.72799999999995l0 541.728-512 0 0-541.728q0-12.576 4-23.136t8.288-15.424 6.016-4.864l475.424 0q1.728 0 6.016 4.864t8.288 15.424 4 23.136zM383.968 676.576l256 0-27.424 66.848q-4 5.152-9.728 6.272l-181.152 0q-5.728-1.152-9.728-6.272zM914.272 658.2719999999999l0-36.576q0-8-5.152-13.152t-13.152-5.152l-54.848 0 0-541.728q0-47.424-26.848-82.016t-64.576-34.56l-475.424 0q-37.728 0-64.576 33.44t-26.848 80.864l0 544-54.848 0q-8 0-13.152 5.152t-5.152 13.152l0 36.576q0 8 5.152 13.152t13.152 5.152l176.576 0 40 95.424q8.576 21.152 30.848 36t45.152 14.848l182.848 0q22.848 0 45.152-14.848t30.848-36l40-95.424 176.576 0q8 0 13.152-5.152t5.152-13.152z"  horiz-adv-x="1024" />

    
    <glyph glyph-name="shuye" unicode="&#58884;" d="M563.17134962 892.22643371L185.68942933 892.22643371c-37.99094727 0-68.71553024-30.45097245-68.71553024-67.999488l0-878.9030491c0-37.49379413 30.72458183-67.9412736 68.71553024-67.9412736L837.69349461-122.61737699000003c37.99094727 0 68.71320121 30.44631552 68.71320121 67.99483107L906.40669582 552.40130787 563.17134962 892.22643371 563.17134962 892.22643371zM837.69349461 524.26611826l0-5.80750336L528.75944505 518.4586137599999 528.75944505 824.22694457l5.99961258 0L837.69349461 524.26611826 837.69349461 524.26611826zM185.68942933-54.67726847999995L185.68942933 824.22694457l274.522145 0 0-373.73871218L837.69349461 450.48823353l0-505.16433692L185.68942933-54.676104529999975 185.68942933-54.67726847999995zM185.68942933-54.67726847999995"  horiz-adv-x="1024" />

    
    <glyph glyph-name="danhangtext" unicode="&#58969;" d="M64-64L64 832l896 0 0-896L64-64zM0 896l0-64 0-896 0-64 64 0 896 0 64 0 0 64L1024 832 1024 896l-64 0L64 896 0 896zM832 640L192 640l0-64 640 0L832 640z"  horiz-adv-x="1024" />

    
    <glyph glyph-name="duohangtext" unicode="&#58973;" d="M64-64L64 832l896 0 0-896L64-64zM0 896l0-64 0-896 0-64 64 0 896 0 64 0 0 64L1024 832 1024 896l-64 0L64 896 0 896zM832 128L192 128l0-64 640 0L832 128zM832 384L192 384l0-64 640 0L832 384zM832 640L192 640l0-64 640 0L832 640z"  horiz-adv-x="1024" />

    
    <glyph glyph-name="plus-blanksfill" unicode="&#59159;" d="M921.6 896h-819.2c-56.32 0-102.4-46.080-102.4-102.4v-819.2c0-56.32 46.080-102.4 102.4-102.4h819.2c56.32 0 102.4 46.080 102.4 102.4v819.2c0 56.32-46.080 102.4-102.4 102.4zM972.8-25.6c0-28.237-22.963-51.2-51.2-51.2l-819.2 0c-28.237 0-51.2 22.963-51.2 51.2v819.2c0 28.237 22.963 51.2 51.2 51.2h819.2c28.237 0 51.2-22.963 51.2-51.2l-0-819.2zM396.787 588.813h76.813v-409.626h-76.813v-51.2h230.426v51.2h-76.813v409.626h76.813v51.2h-230.426z"  horiz-adv-x="1024" />

    
    <glyph glyph-name="copydownlink" unicode="&#58907;" d="M81.64693333 813.18798222H765.40586667v-76.50721223h72.81777778V886.00576H8.82915555v-829.34594333h146.02391666v72.81777778H81.64693333zM185.72780999 711.38872889v-829.39448889h829.39448889V711.38872889H185.72780999z m72.81777778-756.62525668V638.57095111h683.75893333v-683.75893333H258.54558777z"  horiz-adv-x="1024" />

    
    <glyph glyph-name="yidong" unicode="&#59099;" d="M76.8 588.8h870.4v-51.2H76.8zM76.8 409.6h870.4v-51.2H76.8zM76.8 230.4h870.4v-51.2H76.8z"  horiz-adv-x="1024" />

    
    <glyph glyph-name="juzhen-liangbiaoti" unicode="&#58890;" d="M983.55336533 374.64898370000003c12.89966933 12.84991052 17.40223525 32.57867378 11.6860397 51.34624238-6.01960297 19.88046697-21.90480118 34.19644208-42.84719406 38.39560059l-184.84550164 26.86126458c-14.72132741 3.74404741-23.72524563 10.67387259-30.15020088 23.21916208l-85.5936569 170.83293392c-8.44807585 12.79893808-29.49241363 26.55785718-48.71509333 26.5578572-16.94712415 0-40.06555497-8.29637215-49.17141807-31.21212682l-80.78768356-169.16419318c-8.75148325-13.25404918-18.46416118-19.98119822-29.79582104-20.08314312l-189.80317866-27.06394074c-20.13411555-4.04745482-35.61396148-17.85734637-41.4308883-37.08002607-6.07057541-19.83070815-0.50608355-41.53161955 14.51865126-56.60732682l135.4216486-131.32443495c9.61194667-9.66170548 13.05137303-22.30893985 9.56097422-36.2207763l-31.00945067-185.90742756c-2.07409303-16.44104059 2.52920415-32.07259022 12.95064178-43.91033364 10.31949275-11.6860397 25.19252385-18.36342992 40.82407347-18.36342992 8.14466845 0 17.35126282 0 26.76053334 4.80597334l166.22963674 88.98211081 1.71971319 1.21362963c2.68090785 2.68090785 8.59977955 5.56449185 14.1642714 5.56449186 7.08274252 0 13.80989155 0 19.83070816-3.03528772l166.38134044-89.03308325c9.25756682-4.75500089 18.46416118-4.75500089 26.60882963-4.75500089a54.19463111 54.19463111 0 0 1 40.57042488 18.31245748c10.52216889 11.88871585 15.22619733 27.46929303 13.1521043 44.26349986l-31.21212681 186.2618074c-2.63114903 10.16778903 0.75851852 21.90480118 9.61194666 35.5120166l135.37067615 131.63148325z m-181.15242666-95.66071467c-22.61234725-22.56137482-31.61747911-51.64964978-24.38303289-77.09460858l29.64411733-177.1559443v-3.64210252h-0.10073126l-162.99167288 84.22832355c-11.534336 7.63858489-27.31758933 12.39358578-41.17845334 12.39358579-15.78325333 0-28.48024652-3.84477867-40.62139733-12.09017838l-158.74275555-84.88489718-1.26460208-0.15170371h-0.05097245l-0.05097244 2.98431527 29.79582104 178.52249125c4.04745482 29.23876503-4.85694578 57.26511408-24.5347366 76.94290489L279.02558815 404.03945245l176.75180563 29.54338607c29.18900622 4.04745482 52.86327941 20.74093037 68.69750519 48.51363081l80.68695228 161.42366342 80.48427616-160.91757986c11.534336-26.86126459 35.30934045-44.71982459 65.15613392-48.86801067l179.48368592-26.15371852v-4.24891733L802.40093867 278.98826902999997zM272.44407467 534.7934814800001c29.13803378 4.04745482 52.86327941 20.74093037 68.69750518 48.51363082l80.6869523 161.4236634 44.51714844-89.0840557 33.13451616 68.90018133-31.00945067 61.96914252c-8.44807585 12.79893808-29.49241363 26.55785718-48.71509333 26.55785718-16.99688297 0-40.11531378-8.29637215-49.2211769-31.26309925l-80.7367111-169.11322075c-6.01960297-9.10586311-15.88398459-19.93143941-29.79582105-20.03217066l-189.80317867-27.11491319c-20.13411555-4.04745482-35.6637203-17.90831882-41.48186073-37.08002607-6.01960297-19.88046697-0.50608355-41.53161955 14.51865125-56.60732681l88.7806483-86.09974045 12.34382697 72.99739497-48.71509334 46.48929659 176.79913719 29.54338607zM219.37326459 121.79410488999997l-0.05097244 2.93455644 23.16940326 139.165696-54.17885393 52.25646459c0.20267615-3.89575111 0.96119467-7.68955733-0.05097245-11.8377434l-31.00945066-185.90864119c-2.12506548-16.44104059 2.4782317-32.07259022 12.95064178-43.96009244 10.26973392-11.63506725 25.14155141-18.31245748 40.82407348-18.31245748 8.093696 0 17.30029037 0 26.70956089 4.80597334l57.61949393 30.80798814 16.84517925 79.16870163-91.5622874-48.96874193-1.26581571-0.1517037z"  horiz-adv-x="1024" />

    
    <glyph glyph-name="checkboxed" unicode="&#59288;" d="M980.76444445 893.72444445H43.23555555c-22.64177778 0-40.96-18.31822222-40.96-40.96v-937.5288889c0-22.64177778 18.31822222-40.96 40.96-40.96h937.5288889c22.64177778 0 40.96 18.31822222 40.96 40.96V852.76444445c0 22.64177778-18.31822222 40.96-40.96 40.96zM787.11466667 507.904L481.39377778 202.18311111000003c-7.96444445-7.96444445-18.432-11.94666667-29.01333333-11.94666666s-20.93511111 3.98222222-29.01333334 11.94666666l-186.59555556 186.59555556c-16.04266667 16.04266667-16.04266667 41.984 0 57.91288888 16.04266667 16.04266667 41.984 16.04266667 57.9128889 0l157.696-157.696 276.70755555 276.70755556c16.04266667 16.04266667 41.984 16.04266667 57.91288889 0 16.15644445-15.92888889 16.15644445-41.75644445 0.11377778-57.79911111z"  horiz-adv-x="1024" />

    
    <glyph glyph-name="chilun" unicode="&#59121;" d="M999.04 491.776l-112.128 37.376a280.32 280.32 0 0 1-7.168 17.216l52.928 105.664a36.8 36.8 0 0 1-6.848 42.24l-103.424 103.424a36.416 36.416 0 0 1-42.176 6.848l-105.728-52.864a336.448 336.448 0 0 1-17.216 7.168L619.904 870.976A36.608 36.608 0 0 1 585.216 896H438.912a36.608 36.608 0 0 1-34.688-25.024l-37.376-112.128c-5.76-2.24-11.52-4.608-17.152-7.168l-105.728 52.928a36.608 36.608 0 0 1-42.24-6.848L98.304 694.272a36.608 36.608 0 0 1-6.848-42.24l52.864-105.728c-2.56-5.632-4.928-11.328-7.104-17.152l-112.128-37.376A36.48 36.48 0 0 1 0.064 457.088v-146.24c0-15.744 10.048-29.76 25.024-34.752l112.128-37.376c2.24-5.76 4.608-11.52 7.168-17.152l-52.864-105.728a36.608 36.608 0 0 1 6.848-42.24l103.424-103.36c11.136-11.264 28.16-14.016 42.24-6.848l105.728 52.864c5.632-2.496 11.328-4.864 17.152-7.104l37.376-112.128a36.288 36.288 0 0 1 34.624-25.024h146.304a36.48 36.48 0 0 1 34.752 25.024l37.312 112c5.76 2.24 11.52 4.736 17.216 7.232l105.728-52.864a36.48 36.48 0 0 1 42.176 6.848l103.424 103.36a36.608 36.608 0 0 1 6.848 42.24l-52.864 105.728c2.496 5.632 4.864 11.392 7.104 17.152l112.128 37.376A36.672 36.672 0 0 1 1024.064 310.848V457.088a36.48 36.48 0 0 1-25.024 34.688z m-48.128-154.624l-103.872-34.624a36.48 36.48 0 0 1-23.104-22.976 324.352 324.352 0 0 0-17.472-42.112c-5.12-10.24-5.12-22.4 0-32.64l49.024-97.984-66.112-66.112L691.264 89.6a36.608 36.608 0 0 1-32.64 0c-14.016-6.976-28.16-12.864-42.048-17.472a36.736 36.736 0 0 1-23.104-23.104l-34.56-103.872H465.28l-34.688 103.872a36.608 36.608 0 0 1-23.04 23.104 323.584 323.584 0 0 0-42.048 17.472 36.608 36.608 0 0 1-32.64 0l-98.048-49.024-66.176 66.112 49.088 97.984c5.12 10.24 5.12 22.4 0 32.768a331.52 331.52 0 0 0-17.6 42.048 36.352 36.352 0 0 1-23.04 23.04l-103.872 34.624V430.72l103.872 34.688a36.48 36.48 0 0 1 23.104 23.04c4.672 14.016 10.56 28.096 17.472 41.984a36.48 36.48 0 0 1 0 32.768l-48.96 98.048 66.112 66.176 98.048-49.088a36.48 36.48 0 0 1 32.768 0c13.888 6.912 27.968 12.8 41.92 17.472a36.48 36.48 0 0 1 23.04 23.104l34.688 103.872h93.568l34.624-103.872c3.648-10.88 12.16-19.456 23.04-23.104 13.952-4.608 28.096-10.496 42.112-17.472 10.24-5.056 22.4-5.056 32.64 0.064l98.048 49.024 66.112-66.176L806.464 563.2a36.736 36.736 0 0 1 0-32.704c6.912-13.952 12.8-28.032 17.472-41.984 3.712-10.88 12.224-19.456 23.104-23.04l103.872-34.688v-93.632zM512.064 566.784a182.848 182.848 0 1 1 0-365.632 182.848 182.848 0 0 1 0 365.632z m0-292.544c-60.48 0-109.696 49.28-109.696 109.696A109.76 109.76 0 1 0 512.064 274.24z m0 0"  horiz-adv-x="1024" />

    
    <glyph glyph-name="liangbiaoti-check" unicode="&#59026;" d="M474.581811 853.338139l-123.525033-248.141999-284.107575-40.947525a77.800297 77.800297 0 0 1-62.854451-49.819488c-9.417931-26.479399-2.32036-55.620388 18.289895-75.479938L230.671056 237.69210599999997l-48.249834-278.989135c-4.913703-28.185546 7.643538-56.371092 32.348545-72.818348a82.714 82.714 0 0 1 83.601196-4.367736L545.966995 10.638082000000054l247.732525-129.121195a83.601196 83.601196 0 0 1 83.53295 4.367736c24.705007 16.447256 37.262247 44.632802 32.348544 72.818348l-48.249833 278.989135 208.149917 201.325329c20.6785 19.791304 27.776071 48.932292 18.426386 75.411692a77.868543 77.868543 0 0 1-62.922696 49.819488l-284.175821 40.947525L617.283934 853.338139A79.23346 79.23346 0 0 1 545.966995 895.99181c-30.505906 0-58.281977-16.651993-71.316938-42.653671z"  horiz-adv-x="1092" />

    
    <glyph glyph-name="liangbiaoti" unicode="&#59034;" d="M548.627487 822.850351c10.97135 0 21.064992-5.778244 25.526675-14.628467l118.344298-234.786894a47.396233 47.396233 0 0 1 35.839744-25.307248l272.235769-38.692295c10.239927-1.462847 19.017007-8.118799 22.162128-16.969022a22.820408 22.820408 0 0 0-6.217099-24.42954L817.059856 277.574246a44.251112 44.251112 0 0 1-13.238763-39.643146l46.225956-264.043828a23.624974 23.624974 0 0 0-10.825066-23.771259 31.158635 31.158635 0 0 0-30.71978-1.682273l-237.346877 122.147699a49.80993 49.80993 0 0 1-45.055678 0L288.972199-51.49311799999998a31.451204 31.451204 0 0 0-30.71978 1.462847 23.771259 23.771259 0 0 0-11.117635 23.917543l46.299098 264.043828a44.251112 44.251112 0 0 1-13.311905 39.643146L80.66283 468.110028a22.674124 22.674124 0 0 0-6.143956 24.283255 27.501518 27.501518 0 0 0 22.23527 17.042164l272.162627 38.765437a47.396233 47.396233 0 0 1 35.839744 25.160963L523.02767 808.221884A28.452368 28.452368 0 0 0 548.627487 822.850351z m0 73.142335c-30.719781 0-58.660152-16.60331-71.679488-42.715124L352.679173 605.1056209999999l-285.474533-40.959708a78.116013 78.116013 0 0 1-63.121834-49.80993 70.948065 70.948065 0 0 1 18.431868-75.482889l209.187077-201.360848-48.493368-279.111149a72.410911 72.410911 0 0 1 32.475197-72.849765 83.382262 83.382262 0 0 1 83.9674-4.315398L548.627487 10.385297000000037l248.903365-129.169363a84.333112 84.333112 0 0 1 83.967401 4.38854 72.484054 72.484054 0 0 1 32.475196 72.776623l-48.493368 279.111149 209.187078 201.360848a70.948065 70.948065 0 0 1 18.431868 75.482889 78.262298 78.262298 0 0 1-63.194977 49.80993l-285.474533 40.959708L620.306975 853.277562A79.725145 79.725145 0 0 1 548.627487 895.992686z"  horiz-adv-x="1097" />

    
    <glyph glyph-name="tuodong" unicode="&#58887;" d="M16.83911111 704.39822222h990.32177778v-87.38133333H16.83911111V704.39822222z m0-291.27111111h990.32177778v-87.38133333H16.83911111v87.38133333z m0-291.27111111h990.32177778v-87.38133333H16.83911111v87.38133333z"  horiz-adv-x="1024" />

    
    <glyph glyph-name="table" unicode="&#59013;" d="M931 790H93q-19 0-32-13.5T48 745v-722q0-18 13-31.5T93-22h838q19 0 32 13.5t13 31.5V745q0 18-13 31.5T931 790zM339 38H109V196h230v-158z m0 210H109V406h230v-158z m0 210H109V616h230v-158z m288-420H397V196h230v-158z m0 210H397V406h230v-158z m0 210H397V616h230v-158z m288-420H685V196h230v-158z m0 210H685V406h230v-158z m0 210H685V616h230v-158z"  horiz-adv-x="1024" />

    
    <glyph glyph-name="duoxuanti" unicode="&#58921;" d="M83.09115259-116.11249778000001a68.35162075 68.35162075 0 0 0-68.27880296 68.27880296V810.86994963A68.35162075 68.35162075 0 0 0 83.09115259 879.16088889h858.71578074a68.35162075 68.35162075 0 0 0 68.27880297-68.27880297v-858.72791703a68.35162075 68.35162075 0 0 0-68.27880297-68.27880297z m35.77780149 930.2713837c-23.05896297 0-39.06673778-16.0684563-39.06673778-39.06673777v-787.14804148c0-23.05896297 16.0684563-39.06673778 39.06673778-39.06673778h787.16017777c23.05896297 0 39.06673778 16.0684563 39.06673778 39.06673778V775.09214815c0 23.05896297-16.0684563 39.06673778-39.06673778 39.06673777zM462.36254815 209.48005924999995c-9.32067555 0-15.69223111 2.74280297-22.71914667 9.76971853L289.35964445 369.52139852000005A32.13691259 32.13691259 0 1 0 334.81007408 414.97182815l127.55247407-127.55247407 256.17294222 256.18507851a39.72209778 39.72209778 0 0 0 45.79024593 0c12.75524741-12.98583703 12.70670222-32.40391111-0.16990815-45.28052148l-279.13481482-279.13481481c-7.00264297-6.96623408-13.33778963-9.70903703-22.65846518-9.70903705z"  horiz-adv-x="1024" />

    
    <glyph glyph-name="move" unicode="&#59249;" d="M998.4 384l-181.76 181.76v-122.88h-248.32V688.64H691.2L512 870.4l-181.76-181.76h122.88v-248.32H207.36V563.2L25.6 384l181.76-181.76v122.88h248.32V76.79999999999995H332.8l179.2-179.2 181.76 181.76h-122.88v248.32H819.2V204.79999999999995l179.2 179.2z"  horiz-adv-x="1024" />

    
    <glyph glyph-name="paixuti" unicode="&#58920;" d="M384 849.066667c-25.6 0-42.666667-17.066667-42.666667-38.4v-763.733334L153.6 213.333333c-17.066667 12.8-42.666667 12.8-55.466667-4.266666-12.8-17.066667-12.8-42.666667 4.266667-55.466667l251.733333-226.133333c8.533333-8.533333 17.066667-8.533333 25.6-8.533334 4.266667 0 12.8 0 17.066667 4.266667 12.8 8.533333 25.6 21.333333 25.6 38.4V810.666667c0 21.333333-17.066667 38.4-38.4 38.4z m537.6-234.666667l-251.733333 226.133333c-12.8 12.8-29.866667 12.8-42.666667 8.533334-12.8-8.533333-25.6-21.333333-25.6-38.4v-853.333334c0-21.333333 17.066667-42.666667 38.4-42.666666s38.4 17.066667 38.4 42.666666V721.066667L870.4 554.666667c17.066667-12.8 42.666667-12.8 55.466667 4.266666 12.8 17.066667 12.8 42.666667-4.266667 55.466667z"  horiz-adv-x="1024" />

    
    <glyph glyph-name="juzhen-danxuan" unicode="&#58882;" d="M428.11392 311.76476445000003c0-86.21624889 69.90506667-156.12131555 156.12131555-156.12131556s156.12131555 69.90506667 156.12131556 156.12131556-69.90506667 156.12131555-156.12131556 156.12131555-156.12131555-69.90506667-156.12131555-156.12131555zM584.23523555 749.25397333c-240.58993778 0-437.48920889-196.89927111-437.48920888-437.48920888s196.89927111-437.48920889 437.48920888-437.4892089 437.48920889 196.89927111 437.4892089 437.4892089-196.89927111 437.48920889-437.4892089 437.48920888z m0-812.6464c-206.21994667 0-375.15719111 168.93724445-375.1571911 375.15719112S378.01528889 686.92195555 584.23523555 686.92195555s375.15719111-168.93724445 375.15719112-375.1571911-168.93724445-375.15719111-375.15719112-375.15719112zM88.49180445 311.76476445000003v11.06830222c-16.31118222 41.94304-25.04931555 87.38133333-25.04931556 134.56725333C63.44248889 663.62026667 232.37973333 832.55751111 438.59968 832.55751111c47.18592 0 92.62421333-8.73813333 134.56725333-25.04931556h11.06830222c48.35100445 0 95.53692445-6.99050667 140.97521778-20.38897777-76.89557333 66.99235555-177.09283555 107.77031111-286.61077333 107.77031111-240.58993778 0-437.48920889-196.89927111-437.48920889-437.48920889 0-109.51793778 40.77795555-209.7152 107.77031111-286.61077333-13.39847111 44.85575111-20.38897778 92.62421333-20.38897777 140.97521778z"  horiz-adv-x="1024" />

    
    <glyph glyph-name="juzhen-duoxuan" unicode="&#58883;" d="M959.39242667 748.08888889H210.24312889c-34.36999111 0-62.33201778-27.96202667-62.33201778-62.33201778v-749.14929778c0-34.36999111 27.96202667-62.33201778 62.33201778-62.33201778h749.14929778c34.36999111 0 62.33201778 27.96202667 62.33201778 62.33201778V685.75687111c0 34.36999111-27.96202667 62.33201778-62.33201778 62.33201778z m0-780.02403556c0-18.64135111-12.23338667-31.45728-31.45728-31.45728H241.70040889c-18.64135111 0-31.45728 12.23338667-31.45728 31.45728V654.2995911099999c0 18.64135111 12.23338667 31.45728 31.45728 31.45728h686.81728c18.64135111 0 31.45728-12.23338667 31.45728-31.45728v-686.23473778zM762.49315555 454.48760889l-221.36604444-221.36604444-109.51793778 109.51793777c-12.23338667 12.23338667-31.45728 12.23338667-43.69066666 0-12.23338667-12.23338667-12.23338667-31.45728 0-43.69066667l131.072-131.072c6.40796445-6.40796445 12.23338667-9.32067555 22.13660444-9.32067555 9.32067555 0 15.72864 2.91271111 22.13660444 9.32067555l243.5026489 243.5026489c12.23338667 12.23338667 12.23338667 31.45728 0 43.69066666-12.81592889 9.32067555-31.45728 9.32067555-44.2732089-0.58254222zM89.65688889 82.82567111000003c-15.14609778 2.33016889-25.04931555 13.98101333-25.04931556 30.87473778V799.93514667c0 18.64135111 12.23338667 31.45728 31.45728 31.45728h686.81728c16.31118222 0 27.96202667-9.90321778 30.87473778-25.04931556h62.91456v25.04931556c0 34.36999111-27.96202667 62.33201778-62.33201778 62.33201778H64.60757333c-34.36999111 0-62.33201778-27.96202667-62.33201778-62.33201778v-749.14929778c0-34.36999111 27.96202667-62.33201778 62.33201778-62.33201778h25.04931556v62.91456z"  horiz-adv-x="1024" />

    
    <glyph glyph-name="fuxuankuang" unicode="&#58986;" d="M882.59696377 891.84154502H133.8398329a126.05338904 126.05338904 0 0 1-126.05338904-126.05338906V15.14022424999996a126.05338904 126.05338904 0 0 1 126.05338904-126.05338903h750.01766475a126.05338904 126.05338904 0 0 1 126.05338903 126.05338903V766.4184229a126.05338904 126.05338904 0 0 1-127.31392291 125.42312212z m-39.07655061-295.59519733L390.98874652 141.19361328000002a31.51334726 31.51334726 0 0 0-22.05934308-9.45400416 31.51334726 31.51334726 0 0 0-23.31987697 9.45400416l-174.58394381 197.27355385a31.51334726 31.51334726 0 1 0 46.63975392 41.59761839l151.89433381-169.54180825 429.8420566 429.84205659a31.51334726 31.51334726 0 1 0 44.11868617-44.11868617z"  horiz-adv-x="1024" />

    
    <glyph glyph-name="weixuan" unicode="&#58992;" d="M848.14237076 892.37265121H175.85762924a168.07118537 168.07118537 0 0 1-168.07118538-168.07118541v-672.28474152a168.07118537 168.07118537 0 0 1 168.07118538-168.07118537h672.28474152a168.07118537 168.07118537 0 0 1 168.07118538 168.07118537v672.28474152a168.07118537 168.07118537 0 0 1-168.07118538 168.07118541z m100.84271125-840.35592693a100.84271122 100.84271122 0 0 0-100.84271125-100.84271123H175.85762924a100.84271122 100.84271122 0 0 0-100.84271125 100.84271123v672.28474152A100.84271122 100.84271122 0 0 0 175.85762924 825.14417705h672.28474152a100.84271122 100.84271122 0 0 0 100.84271125-100.84271125z"  horiz-adv-x="1024" />

    
    <glyph glyph-name="xialati" unicode="&#59075;" d="M138.24 825.79911111c-37.54666667 0-67.92533333-30.37866667-67.92533333-67.92533333v-747.63377778c0-37.54666667 30.37866667-67.92533333 67.92533333-67.92533333h747.63377778c37.54666667 0 67.92533333 30.37866667 67.92533333 67.92533333v747.52c0 37.54666667-30.37866667 67.92533333-67.92533333 67.92533333H138.24z m0 67.92533334h747.63377778c75.09333333 0 135.96444445-60.87111111 135.96444444-135.96444445v-747.63377778c0-75.09333333-60.87111111-135.96444445-135.96444444-135.96444444H138.24C63.14666667-125.72444444999996 2.27555555-64.85333333000005 2.27555555 10.240000000000009v747.52C2.27555555 832.8533333299999 63.14666667 893.72444445 138.24 893.72444445z m101.94488889-373.76H783.92888889L512 180.11022221999997 240.18488889 519.96444445z"  horiz-adv-x="1024" />

    
    <glyph glyph-name="radio" unicode="&#58953;" d="M512-64c247.424 0 448 200.576 448 448S759.424 832 512 832 64 631.424 64 384s200.576-448 448-448z m0-64C229.216-128 0 101.21600000000001 0 384S229.216 896 512 896s512-229.216 512-512-229.216-512-512-512zM512 384m-320 0a320 320 0 1 1 640 0 320 320 0 1 1-640 0Z"  horiz-adv-x="1024" />

    
    <glyph glyph-name="input-remove" unicode="&#59054;" d="M512-131.18577778000008A515.18577778 515.18577778 0 1 0 1027.18577778 384 515.91395555 515.91395555 0 0 0 512-131.18577778000008z m0 955.73333333A440.54755555 440.54755555 0 1 1 952.54755555 384 441.09368889 441.09368889 0 0 1 512 824.54755555zM668.55822222 190.12266666999994a37.50115555 37.50115555 0 0 0-26.03235555 10.55857778L352.52906667 490.67804445a38.22933333 38.22933333 0 0 0-8.37404445 25.30417777 37.31911111 37.31911111 0 0 0 12.19697778 25.85031111 36.40888889 36.40888889 0 0 0 25.12213333 9.8304 36.40888889 36.40888889 0 0 0 25.30417778-9.8304l288.54044444-288.3584a37.50115555 37.50115555 0 0 0-26.76053333-63.35146666zM380.928 190.12266666999994a37.50115555 37.50115555 0 0 0-26.76053333 63.35146666l289.9968 289.9968a38.22933333 38.22933333 0 0 0 23.66577778 8.37404445 36.40888889 36.40888889 0 0 0 27.4887111-12.19697778 37.6832 37.6832 0 0 0 0-50.42631111L406.96035555 200.68124445a37.50115555 37.50115555 0 0 0-26.03235555-10.55857778z"  horiz-adv-x="1024" />

    
    <glyph glyph-name="diannao" unicode="&#59020;" d="M906.201504 794.369925H119.338346c-44.655639 0-80.07218-35.416541-80.072181-80.072181v-531.24812c0-44.655639 35.416541-80.07218 80.072181-80.07218h786.863158c44.655639 0 80.07218 35.416541 80.07218 80.07218V712.757895c0 44.655639-36.956391 81.61203-80.07218 81.61203z m18.478195-503.530827H99.320301V731.23609h823.819549v-440.396992zM633.64812 90.658647c0 7.699248 1.53985 16.938346 3.0797 23.097744H393.431579c-1.53985-3.079699-3.079699-3.079699-4.619549-6.159399 1.53985-6.159398 1.53985-12.318797 1.53985-18.478195 0-30.796992-18.478195-56.974436-43.11579-67.753383l-1.539849-1.53985c0-24.637594 20.018045-46.195489 46.195488-46.195489h235.596993c24.637594 0 46.195489 20.018045 46.195489 46.195489v1.53985s0 1.53985-1.53985 1.539849c-23.097744 12.318797-38.496241 38.496241-38.496241 67.753384z"  horiz-adv-x="1024" />

    
    <glyph glyph-name="radioed" unicode="&#59229;" d="M512 824c59.4 0 117-11.6 171.2-34.5 52.4-22.2 99.4-53.9 139.9-94.3 40.4-40.4 72.2-87.5 94.3-139.9C940.4 501 952 443.4 952 384s-11.6-117-34.5-171.2c-22.2-52.4-53.9-99.4-94.3-139.9-40.4-40.4-87.5-72.2-139.9-94.3C629-44.39999999999998 571.4-56 512-56s-117 11.6-171.2 34.5c-52.4 22.2-99.4 53.9-139.9 94.3-40.4 40.4-72.2 87.5-94.3 139.9C83.6 267 72 324.6 72 384s11.6 117 34.5 171.2c22.2 52.4 53.9 99.4 94.3 139.9 40.4 40.4 87.5 72.2 139.9 94.3C395 812.4 452.6 824 512 824m0 72C229.2 896 0 666.8 0 384s229.2-512 512-512 512 229.2 512 512S794.8 896 512 896z"  horiz-adv-x="1024" />

    
    <glyph glyph-name="date" unicode="&#58917;" d="M58.235871 797.431742C26.095484 797.431742 0 771.270194 0 738.931613v-798.620903c0-32.206452 26.095484-58.500129 58.235871-58.500129h1006.625032c32.140387 0 58.235871 26.161548 58.235871 58.500129V738.931613a58.467097 58.467097 0 0 1-58.235871 58.500129h-212.859871l38.746839-38.978065V855.997935c0 21.537032-17.341935 38.978065-38.746839 38.978065-21.371871 0-38.713806-17.441032-38.713806-38.978065v-136.456258h251.573677a19.257806 19.257806 0 0 0-19.224774 19.422968v-798.620903c0 10.768516 8.654452 19.422968 19.224774 19.422968H58.235871c10.669419 0 19.224774-8.621419 19.224774-19.422968V738.931613a19.323871 19.323871 0 0 0-19.224774-19.422968h212.859871c21.371871 0 38.713806 17.441032 38.713806 38.978065 0 21.504-17.341935 38.978065-38.713806 38.978064H58.235871z m174.113032-38.978065c0-21.470968 17.341935-38.945032 38.746839-38.945032 21.371871 0 38.713806 17.441032 38.713806 38.978065V855.964903c0 21.537032-17.341935 38.978065-38.713806 38.978065-21.404903 0-38.746839-17.441032-38.746839-38.978065v-97.478193zM1123.096774 563.6954840000001v38.978064H0v-136.390193c0-21.504 17.341935-38.978065 38.713806-38.978065 21.404903 0 38.746839 17.474065 38.746839 38.978065V563.6954840000001l-38.746839-38.978065h1045.669162l-38.746839 38.978065v-97.412129c0-21.504 17.341935-38.978065 38.746839-38.978065 21.371871 0 38.713806 17.474065 38.713806 38.978065V563.6954840000001z m-270.963613-253.159226c21.371871 0 38.713806 17.441032 38.713807 38.978065 0 21.470968-17.341935 38.945032-38.713807 38.945032H271.095742c-21.404903 0-38.746839-17.441032-38.746839-38.978065 0-21.504 17.341935-38.978065 38.746839-38.978064h581.037419z m-581.037419-116.934193c-21.404903 0-38.746839-17.408-38.746839-38.945033 0-21.504 17.341935-38.978065 38.746839-38.978064h387.402323c21.371871 0 38.713806 17.474065 38.713806 38.978064 0 21.537032-17.341935 38.978065-38.713806 38.978065H271.095742zM852.001032 719.5416769999999l-38.713806 38.978065v-78.022194c0-21.504 17.341935-38.978065 38.713806-38.978064 21.404903 0 38.746839 17.474065 38.746839 38.978064V797.464774H271.095742c-21.404903 0-38.746839-17.474065-38.746839-38.978064 0-21.537032 17.341935-38.978065 38.746839-38.978065h580.90529zM309.842581 758.48671c0 21.504-17.341935 38.978065-38.713807 38.978064-21.404903 0-38.746839-17.474065-38.746839-38.978064v-78.022194c0-21.504 17.341935-38.978065 38.746839-38.978064 21.371871 0 38.713806 17.474065 38.713807 38.978064V758.48671z"  horiz-adv-x="1123" />

    
    <glyph glyph-name="danxuanti" unicode="&#59007;" d="M512 566.65935013c-100.84453136 0-182.65935013-81.81481876-182.65935013-182.65935013S411.15546864 201.34064987 512 201.34064987 694.65935013 283.02601482 694.65935013 384 612.84453136 566.65935013 512 566.65935013z m0 328.94217481c-281.30316642 0-511.60152494-230.16890469-511.60152494-511.60152494 0-281.30316642 230.16890469-511.60152494 511.60152494-511.60152494S1023.60152494 102.56737974999999 1023.60152494 384c0 281.43262025-230.29835852 511.60152494-511.60152494 511.60152494z m0-950.06163753c-241.17248 0-438.46011259 197.28763259-438.46011259 438.46011259 0 241.17248 197.28763259 438.46011259 438.46011259 438.46011259 241.17248 0 438.46011259-197.28763259 438.46011259-438.46011259 0-241.17248-197.28763259-438.46011259-438.46011259-438.46011259z"  horiz-adv-x="1024" />

    
    <glyph glyph-name="danxuan1" unicode="&#58885;" d="M511.80657778 837.16892445c249.66257778 0 452.78094222-203.11608889 452.78094222-452.78094223S761.46915555-68.39296000000002 511.80544-68.39296000000002 59.02449778 134.72426667000002 59.02449778 384.38912s203.11722667 452.77980445 452.78094222 452.77980445m0 56.59875555c-281.32238222 0-509.37856-228.05617778-509.37856-509.37856 0-281.32352 228.05617778-509.37969778 509.37856-509.37969778s509.37969778 228.05617778 509.37969778 509.37969778c0 281.32124445-228.05617778 509.37856-509.37969778 509.37856z"  horiz-adv-x="1024" />

    


  </font>
</defs>
</svg>
